<svg xmlns="http://www.w3.org/2000/svg" width="216.107" height="194.035" viewBox="0 0 216.107 194.035"><defs><style>.a,.b,.e,.h{fill:none;}.a,.b,.c,.f{stroke:#aaa;}.a,.b,.e{stroke-linecap:round;}.a{stroke-width:4px;}.b{stroke-width:2px;}.c{fill:#aaa;}.d,.f{fill:#fff;}.d,.e{stroke:#3fa7f3;}.e{stroke-width:0.8px;}.f{stroke-width:3px;}.g{stroke:none;}</style></defs><g transform="translate(0.416 0)"><path class="a" d="M1587.556,1562.921l-.068-37.595s-.339-9.958,5.226-13.581a17.5,17.5,0,0,1,10.528-3.076l93.762-.259s7.116.134,11.446,3.055,5.313,12.187,5.313,12.187l-.236,131.825a15.113,15.113,0,0,1-5.193,9.069c-4.485,3.531-13.572,3.055-13.572,3.055l-73.042-.06" transform="translate(-1520.238 -1475.621)"/><path class="b" d="M1589.184,1526.882h69.083" transform="translate(-1492.84 -1463.893)"/><path class="b" d="M1589.184,1526.882h69.083" transform="translate(-1492.84 -1433.396)"/><path class="b" d="M1589.184,1526.882h37.7" transform="translate(-1461.452 -1402.898)"/><path class="b" d="M1589.184,1526.882h35.042" transform="translate(-1458.799 -1372.4)"/><path class="c" d="M91.8,91.808a9.911,9.911,0,1,1-9.889-9.933A9.857,9.857,0,0,1,91.8,91.808ZM36.738,81.875a9.911,9.911,0,1,0,9.933,9.933A9.908,9.908,0,0,0,36.738,81.875ZM100,23.32c-65.538,0-82.237-2.776-100-21.513C7.46,13.019,11.559,34.1,80.914,33.08,153.2,32,109.107,51.752,96.268,74.046,136.758,37.894,165.536,23.32,100,23.32Z" transform="translate(0 87.553)"/><g class="d" transform="translate(152.69 0)"><circle class="g" cx="31.5" cy="31.5" r="31.5"/><circle class="h" cx="31.5" cy="31.5" r="31"/></g><path class="e" d="M43,3.075V16.42l9.1,7.628" transform="translate(139.408 17.124)"/><g class="f" transform="translate(152.69 0)"><circle class="g" cx="31.5" cy="31.5" r="31.5"/><circle class="h" cx="31.5" cy="31.5" r="30"/></g><path class="b" d="M43,3.075V16.42l9.1,7.628" transform="translate(139.408 17.124)"/></g></svg>