<svg xmlns="http://www.w3.org/2000/svg" width="60.921" height="51.822" viewBox="0 0 60.921 51.822"><defs><style>.a,.b{fill:none;stroke:#2d2d2d;stroke-linecap:round;}.a{stroke-width:2px;}.c{fill:#2d2d2d;}</style></defs><g transform="translate(0 1)"><path class="a" d="M1587.5,1522.317l-.017-9.591s-.087-2.541,1.338-3.465a4.5,4.5,0,0,1,2.7-.785l24.013-.066a6.461,6.461,0,0,1,2.932.78c1.11.745,1.36,3.109,1.36,3.109l-.061,33.633a3.85,3.85,0,0,1-1.33,2.314c-1.149.9-3.476.78-3.476.78l-18.707-.015" transform="translate(-1570.261 -1499.216)"/><path class="a" d="M1587.484,1517.579v-4.853s-.087-2.541,1.338-3.465a4.5,4.5,0,0,1,2.7-.785l24.013-.066a6.461,6.461,0,0,1,2.932.78c1.11.745,1.36,3.109,1.36,3.109l-.061,33.633a3.85,3.85,0,0,1-1.33,2.314c-1.149.9-3.476.78-3.476.78l-5.184.005" transform="translate(-1559.903 -1508.41)"/><path class="b" d="M1589.183,1526.882h17.693" transform="translate(-1564.509 -1510.005)"/><path class="b" d="M1589.183,1526.882h15.936" transform="translate(-1552.41 -1520.737)"/><path class="b" d="M1589.183,1526.882h17.693" transform="translate(-1564.509 -1502.219)"/><path class="b" d="M1589.183,1526.882h3.146" transform="translate(-1539.62 -1511.802)"/><path class="b" d="M1589.183,1526.882h9.655" transform="translate(-1556.47 -1494.433)"/><path class="b" d="M1589.183,1526.882h3.147" transform="translate(-1539.62 -1502.866)"/><path class="b" d="M1589.183,1526.882h8.975" transform="translate(-1555.79 -1486.647)"/><path class="b" d="M1589.183,1526.882h3.146" transform="translate(-1539.62 -1495.08)"/><path class="c" d="M23.511,24.857a2.538,2.538,0,1,1-2.533-2.544A2.525,2.525,0,0,1,23.511,24.857Zm-14.1-2.544a2.538,2.538,0,1,0,2.544,2.544A2.538,2.538,0,0,0,9.409,22.313Zm16.2-15C8.826,7.317,4.549,6.606,0,1.807c1.911,2.872,2.96,8.27,20.723,8.009,18.512-.278,7.221,4.782,3.932,10.492C35.025,11.049,42.4,7.317,25.611,7.317Z" transform="translate(0 21.875)"/></g></svg>