<svg xmlns="http://www.w3.org/2000/svg" width="48" height="43.662" viewBox="0 0 48 43.662"><defs><style>.a,.b,.e,.f,.h{fill:none;}.a,.b{stroke:#fff;}.a,.b,.e,.f{stroke-linecap:round;}.a{stroke-width:2px;}.c,.d{fill:#fff;}.d,.e,.f{stroke:#3fa7f3;}.e{stroke-width:0.8px;}.g{stroke:none;}</style></defs><g transform="translate(0 0.434)"><path class="a" d="M1587.5,1520.512l-.015-8.346s-.076-2.211,1.165-3.015a3.913,3.913,0,0,1,2.347-.683l20.9-.058a5.622,5.622,0,0,1,2.551.678c.966.648,1.184,2.706,1.184,2.706l-.053,29.267a3.351,3.351,0,0,1-1.157,2.013,5.53,5.53,0,0,1-3.025.678l-16.279-.013" transform="translate(-1572.497 -1501.537)"/><path class="b" d="M1589.183,1526.882h15.4" transform="translate(-1567.712 -1513.323)"/><path class="b" d="M1589.183,1526.882h15.4" transform="translate(-1567.712 -1506.547)"/><path class="b" d="M1589.183,1526.882h8.4" transform="translate(-1560.716 -1499.772)"/><path class="b" d="M1589.183,1526.882h7.81" transform="translate(-1560.125 -1492.997)"/><path class="c" d="M20.459,21.865a2.209,2.209,0,1,1-2.2-2.214A2.2,2.2,0,0,1,20.459,21.865ZM8.188,19.651A2.209,2.209,0,1,0,10.4,21.865,2.208,2.208,0,0,0,8.188,19.651ZM22.286,6.6C7.68,6.6,3.958,5.983,0,1.807c1.663,2.5,2.576,7.2,18.033,6.97,16.109-.242,6.283,4.161,3.422,9.13C30.479,9.85,36.892,6.6,22.286,6.6Z" transform="translate(0 17.674)"/><g class="d" transform="translate(33.991 -0.434)"><circle class="g" cx="7.004" cy="7.004" r="7.004"/><circle class="h" cx="7.004" cy="7.004" r="6.504"/></g><path class="e" d="M43,3.075V6.049l2.028,1.7" transform="translate(-2.347 0.992)"/><circle class="c" cx="7.004" cy="7.004" r="7.004" transform="translate(33.991 -0.434)"/><path class="f" d="M43,3.075V6.049l2.028,1.7" transform="translate(-2.347 0.992)"/></g></svg>